{"title":"Superman Batman Apocalypse 2010 DvDRip.H264.Feel-Free","uid":5830296,"size":1030368953,"categoryP":"video","categoryS":"movies","magnet":"?xt=urn:btih:721d8b6698d7d917039217c65241dced6dd134e4&amp;dn=Superman+Batman+Apocalypse+2010+DvDRip.H264.Feel-Free&amp;tr=udp%3A%2F%2Ftracker.openbittorrent.com%3A80&amp;tr=udp%3A%2F%2Fopen.demonii.com%3A1337&amp;tr=udp%3A%2F%2Ftracker.coppersurfer.tk%3A6969&amp;tr=udp%3A%2F%2Fexodus.desync.com%3A6969","seeders":0,"leechers":0,"uploader":"neon","files":-1,"time":1284490048,"description":"Genre:Animation\nLanguage: English\n &lt;a href=&quot; http://www.imdb.com/title/tt1673430/&quot; rel=&quot;nofollow&quot; target=&quot;_NEW&quot;&gt; http://www.imdb.com/title/tt1673430/&lt;/a&gt;\nSource:DVD\n\n\nGeneral\nComplete name :Superman Batman Apocalypse 2010 DvDRip.H264.Feel-Free\nFormat : MPEG-4\nFormat profile : Base Media\nCodec ID : isom\nFile size : 982 MiB\nDuration : 1h 18mn\nOverall bit rate : 1 758 Kbps\nVideo #1\nID : 1\nFormat : AVC\nFormat/Info : Advanced Video Codec\nFormat profile : &lt;a class=&quot;__cf_email__&quot; href=&quot;/cdn-cgi/l/email-protection&quot; data-cfemail=&quot;d193b0a2b4bdb8bfb4919de4ffe0&quot;&gt;[email&amp;#160;protected]&lt;/a&gt;&lt;script data-cfhash='f9e31' type=&quot;text/javascript&quot;&gt;\n/* &lt;![CDATA[ */!function(){try{var t=&quot;currentScript&quot;in document?document.currentScript:function(){for(var t=document.getElementsByTagName(&quot;script&quot;),e=t.length;e--;)if(t[e].getAttribute(&quot;data-cfhash&quot;))return t[e]}();if(t&amp;&amp;t.previousSibling){var e,r,n,i,c=t.previousSibling,a=c.getAttribute(&quot;data-cfemail&quot;);if(a){for(e=&quot;&quot;,r=parseInt(a.substr(0,2),16),n=2;a.length-n;n+=2)i=parseInt(a.substr(n,2),16)^r,e+=String.fromCharCode(i);e=document.createTextNode(e),c.parentNode.replaceChild(e,c)}t.parentNode.removeChild(t);}}catch(u){}}()/* ]]&gt; */&lt;/script&gt;\nFormat settings, CABAC : No\nFormat settings, ReFrames : 1 frame\nCodec ID : avc1\nCodec ID/Info : Advanced Video Coding\nDuration : 1h 18mn\nBit rate mode : Variable\nBit rate : 1 518 Kbps\nWidth : 652 pixels\nHeight : 352 pixels\nDisplay aspect ratio : 1.852\nFrame rate mode : Constant\nFrame rate : 24.000 fps\nResolution : 24 bits\nColorimetry : 4:2:0\nScan type : Progressive\nBits/(Pixel*Frame) : 0.276\nStream size : 848 MiB (86%)\nAudio #2\nID : 2\nFormat : AAC\nFormat/Info : Advanced Audio Codec\nFormat version : Version 4\nFormat profile : LC\nFormat settings, SBR : No\nCodec ID : 40\nDuration : 1h 18mn\nBit rate mode : Variable\nBit rate : 256 Kbps\nChannel(s) : 6 channels\nChannel positions : Front: L C R, Rear: L R, LFE\nSampling rate : 48.0 KHz\nResolution : 16 bits\nStream size : 132 MiB (13%)\n\nPlot\nBatman discovers a mysterious teen-aged girl with super-human powers and a connection to Superman. When the girl comes to the attention of Darkseid, the evil overlord of Apokolips, events take a decidedly dangerous turn","torrent":{"xt":"urn:btih:721d8b6698d7d917039217c65241dced6dd134e4","amp;dn":"Superman+Batman+Apocalypse+2010+DvDRip.H264.Feel-Free","amp;tr":["udp%3A%2F%2Ftracker.openbittorrent.com%3A80","udp%3A%2F%2Fopen.demonii.com%3A1337","udp%3A%2F%2Ftracker.coppersurfer.tk%3A6969","udp%3A%2F%2Fexodus.desync.com%3A6969"],"infoHash":"721d8b6698d7d917039217c65241dced6dd134e4","infoHashBuffer":{"type":"Buffer","data":[114,29,139,102,152,215,217,23,3,146,23,198,82,65,220,237,109,209,52,228]},"announce":[],"urlList":[]}}